<?xml version="1.0" encoding="UTF-8" standalone="no"?>
<!DOCTYPE svg PUBLIC "-//W3C//DTD SVG 1.1//EN" "http://www.w3.org/Graphics/SVG/1.1/DTD/svg11.dtd">
<svg xmlns="http://www.w3.org/2000/svg" version="1.1" viewBox="0.00 0.00 500.00 500.00">
<g stroke-width="2.00" fill="none" stroke-linecap="butt">
<path stroke="#767e80" vector-effect="non-scaling-stroke" d="
  M 315.06 173.46
  Q 314.73 170.61 312.80 168.31"
/>
<path stroke="#10283d" vector-effect="non-scaling-stroke" d="
  M 343.31 154.78
  L 377.18 223.50
  A 1.47 1.47 0.0 0 0 379.30 224.08
  C 384.21 220.87 391.05 218.45 394.87 216.60
  Q 406.58 210.95 418.31 205.34
  Q 418.71 205.15 418.93 204.77
  Q 419.19 204.32 419.63 204.21"
/>
<path stroke="#767e80" vector-effect="non-scaling-stroke" d="
  M 419.63 204.21
  Q 419.62 204.52 420.03 204.50
  A 0.48 0.48 0.0 0 0 420.43 203.81
  L 416.71 196.59
  Q 416.38 195.95 415.70 196.16
  Q 412.33 197.20 409.15 198.68
  Q 395.55 205.06 382.46 211.86
  A 0.73 0.72 -24.9 0 1 381.46 211.50
  Q 376.79 200.52 370.27 189.98"
/>
<path stroke="#10283d" vector-effect="non-scaling-stroke" d="
  M 370.27 189.98
  Q 369.81 188.88 370.33 188.62
  Q 384.42 181.71 398.80 174.82"
/>
<path stroke="#767e80" vector-effect="non-scaling-stroke" d="
  M 398.80 174.82
  Q 399.13 175.19 399.53 175.12
  Q 400.12 175.01 399.85 174.48
  L 395.86 166.69
  Q 395.57 166.14 395.01 166.40
  Q 386.77 170.18 378.64 174.22
  C 374.29 176.38 370.17 177.93 365.83 179.65
  Q 365.30 179.87 365.09 179.33
  Q 361.15 169.24 355.45 159.96"
/>
<path stroke="#10283d" vector-effect="non-scaling-stroke" d="
  M 355.45 159.96
  L 355.19 159.22
  Q 355.02 158.70 355.51 158.46
  L 390.06 141.61"
/>
<path stroke="#767e80" vector-effect="non-scaling-stroke" d="
  M 390.06 141.61
  Q 389.24 137.78 386.50 134.39
  Q 386.17 133.98 385.70 134.23
  C 383.67 135.30 381.23 135.95 379.41 136.83
  Q 361.59 145.48 343.66 153.89
  Q 343.04 154.18 343.31 154.78"
/>
<path stroke="#85a4bc" vector-effect="non-scaling-stroke" d="
  M 390.06 141.61
  L 386.23 135.28
  Q 385.93 134.78 385.40 135.02
  L 343.31 154.78"
/>
<path stroke="#85a4bc" vector-effect="non-scaling-stroke" d="
  M 355.45 159.96
  L 365.15 180.43
  A 0.74 0.73 -25.0 0 0 366.12 180.78
  L 393.72 168.03
  Q 395.46 167.23 396.23 168.98
  L 398.80 174.82"
/>
<path stroke="#85a4bc" vector-effect="non-scaling-stroke" d="
  M 370.27 189.98
  L 381.36 212.82
  Q 381.60 213.31 382.09 213.06
  Q 397.07 205.29 412.13 198.14
  Q 413.29 197.59 415.30 197.09
  Q 415.83 196.95 416.08 197.43
  L 419.63 204.21"
/>
<path stroke="#10283d" vector-effect="non-scaling-stroke" d="
  M 319.28 166.19
  Q 328.35 186.46 338.47 205.79
  C 341.61 211.81 344.79 224.67 338.44 229.51"
/>
<path stroke="#767e80" vector-effect="non-scaling-stroke" d="
  M 338.44 229.51
  C 323.43 241.81 309.84 232.78 303.55 217.63
  C 298.66 205.86 293.03 194.44 287.60 182.91
  Q 286.59 180.75 284.90 181.45"
/>
<path stroke="#10283d" vector-effect="non-scaling-stroke" d="
  M 282.76 182.17
  Q 283.11 182.49 282.06 183.14"
/>
<path stroke="#767e80" vector-effect="non-scaling-stroke" d="
  M 282.06 183.14
  Q 279.56 183.65 279.13 184.94"
/>
<path stroke="#10283d" vector-effect="non-scaling-stroke" d="
  M 279.13 184.94
  Q 280.77 190.65 282.83 194.73
  C 288.90 206.79 292.52 216.43 299.68 229.78
  Q 302.76 235.51 307.91 238.81
  C 314.50 243.02 323.91 245.83 331.67 243.40
  Q 339.60 240.91 341.63 239.15
  Q 350.65 231.33 351.75 219.87"
/>
<path stroke="#767e80" vector-effect="non-scaling-stroke" d="
  M 351.75 219.87
  Q 351.38 212.60 349.08 207.49
  Q 338.90 184.82 327.43 162.88
  A 1.17 1.17 0.0 0 0 326.02 162.31
  Q 321.68 163.79 319.28 166.19"
/>
<path stroke="#85a4bc" vector-effect="non-scaling-stroke" d="
  M 351.75 219.87
  C 350.56 215.69 349.93 211.47 348.23 207.61
  Q 338.34 185.20 326.82 163.39
  A 0.68 0.68 0.0 0 0 325.93 163.09
  L 319.28 166.19"
/>
<path stroke="#85a4bc" vector-effect="non-scaling-stroke" d="
  M 279.13 184.94
  L 282.06 183.14"
/>
<path stroke="#85a4bc" vector-effect="non-scaling-stroke" d="
  M 286.38 182.23
  Q 295.16 200.63 303.67 219.39
  C 307.29 227.38 311.02 232.89 319.00 235.25
  Q 330.85 238.77 338.44 229.51"
/>
<path stroke="#10283d" vector-effect="non-scaling-stroke" d="
  M 257.82 195.11
  L 262.46 260.36"
/>
<path stroke="#767e80" vector-effect="non-scaling-stroke" d="
  M 262.46 260.36
  L 211.39 215.39
  A 0.77 0.77 0.0 0 0 210.54 215.28
  L 203.04 219.05"
/>
<path stroke="#10283d" vector-effect="non-scaling-stroke" d="
  M 203.04 219.05
  C 203.88 220.00 204.34 221.10 205.19 221.82
  C 211.88 227.47 218.19 233.69 224.88 239.09
  Q 232.20 245.02 239.25 251.25
  C 249.85 260.62 260.44 269.01 270.80 278.18
  Q 271.19 278.52 272.10 278.27"
/>
<path stroke="#767e80" vector-effect="non-scaling-stroke" d="
  M 272.10 278.27
  Q 271.63 278.72 272.47 278.89
  A 0.51 0.50 3.5 0 0 273.08 278.36
  L 266.36 191.71
  A 0.70 0.69 -9.4 0 0 265.49 191.09
  Q 261.35 192.16 257.82 195.11"
/>
<path stroke="#85a4bc" vector-effect="non-scaling-stroke" d="
  M 272.10 278.27
  L 265.89 193.21
  A 1.13 1.12 76.0 0 0 264.32 192.26
  L 257.82 195.11"
/>
<path stroke="#85a4bc" vector-effect="non-scaling-stroke" d="
  M 203.04 219.05
  L 210.51 216.08
  A 0.88 0.87 52.1 0 1 211.37 216.19
  Q 214.72 218.65 219.43 223.32
  Q 228.34 232.16 262.46 260.36"
/>
<path stroke="#10283d" vector-effect="non-scaling-stroke" d="
  M 172.32 232.09
  Q 172.39 233.94 172.18 235.24
  Q 171.78 237.73 171.78 238.31
  Q 171.86 247.95 171.26 264.76
  Q 170.71 280.25 170.66 321.53
  Q 170.66 322.12 171.18 321.85
  L 179.34 317.61"
/>
<path stroke="#767e80" vector-effect="non-scaling-stroke" d="
  M 179.34 317.61
  Q 180.32 308.15 179.86 298.03"
/>
<path stroke="#10283d" vector-effect="non-scaling-stroke" d="
  M 179.86 298.03
  C 180.10 297.09 180.32 296.58 181.27 296.19
  C 192.05 291.76 202.22 286.31 212.88 281.69
  A 3.75 3.74 -35.5 0 1 216.87 282.35
  Q 223.57 288.39 230.48 294.54
  C 232.43 296.27 233.67 295.02 235.46 294.47
  Q 237.95 293.71 240.77 291.88"
/>
<path stroke="#767e80" vector-effect="non-scaling-stroke" d="
  M 240.77 291.88
  Q 240.38 289.97 237.79 287.95
  Q 223.81 277.01 209.75 264.07
  C 206.32 260.91 200.53 256.59 195.84 251.90
  Q 190.66 246.72 172.32 232.09"
/>
<path stroke="#85a4bc" vector-effect="non-scaling-stroke" d="
  M 240.77 291.88
  Q 233.98 285.44 227.60 280.62
  C 220.55 275.28 213.94 268.40 206.45 262.34
  Q 199.43 256.65 195.51 253.12
  Q 184.26 242.97 172.32 232.09"
/>
<path stroke="#85a4bc" vector-effect="non-scaling-stroke" d="
  M 179.86 298.03
  Q 179.34 298.72 179.32 300.25
  Q 179.14 311.86 179.34 317.61"
/>
<path stroke="#85a4bc" vector-effect="non-scaling-stroke" d="
  M 179.97 251.76
  Q 179.78 251.88 179.62 251.89
  Q 179.50 251.89 179.50 252.02
  L 179.36 286.78
  A 0.79 0.79 0.0 0 0 180.42 287.53
  C 185.22 285.85 189.56 283.28 194.33 281.41
  Q 201.32 278.68 207.51 274.26"
/>
<path stroke="#10283d" vector-effect="non-scaling-stroke" d="
  M 207.51 274.26
  L 180.65 251.29
  Q 180.25 250.96 180.08 251.45
  L 179.97 251.76"
/>
<path stroke="#767e80" vector-effect="non-scaling-stroke" d="
  M 207.51 274.26
  L 180.72 286.53
  A 0.48 0.48 0.0 0 1 180.04 286.09
  L 179.97 251.76"
/>
<path stroke="#10283d" vector-effect="non-scaling-stroke" d="
  M 82.28 274.97
  Q 83.14 279.41 85.04 281.86
  A 2.36 2.35 -32.1 0 0 87.94 282.52
  L 110.29 271.55
  A 0.43 0.43 0.0 0 1 110.87 271.76
  Q 120.61 294.25 131.27 316.44
  C 134.13 322.40 136.50 328.99 139.23 335.33
  A 1.66 1.65 63.7 0 0 141.55 336.12
  L 148.24 332.39"
/>
<path stroke="#767e80" vector-effect="non-scaling-stroke" d="
  M 148.24 332.39
  Q 145.67 325.90 142.76 319.72
  C 134.79 302.75 127.58 285.65 118.89 269.00"
/>
<path stroke="#10283d" vector-effect="non-scaling-stroke" d="
  M 118.89 269.00
  L 118.86 268.59
  Q 118.82 268.05 119.31 267.82
  L 142.32 256.84"
/>
<path stroke="#767e80" vector-effect="non-scaling-stroke" d="
  M 142.32 256.84
  Q 141.21 252.35 138.84 248.69
  Q 138.56 248.26 138.10 248.48
  Q 117.89 258.03 97.53 266.97
  Q 89.62 270.44 82.28 274.97"
/>
<path stroke="#85a4bc" vector-effect="non-scaling-stroke" d="
  M 142.32 256.84
  L 138.74 249.80
  A 0.77 0.76 -25.5 0 0 137.73 249.45
  L 82.28 274.97"
/>
<path stroke="#85a4bc" vector-effect="non-scaling-stroke" d="
  M 118.89 269.00
  Q 118.65 269.06 118.58 269.42
  Q 118.53 269.64 118.66 269.90
  C 125.43 283.47 131.49 296.41 137.97 310.99
  Q 140.51 316.69 144.65 325.56
  Q 147.10 330.82 148.24 332.39"
/>
</g>
<path fill="#000201" d="
  M 362.33 142.64
  Q 370.34 138.20 372.78 137.39
  Q 380.37 134.89 387.30 130.41
  A 0.60 0.59 60.2 0 1 388.16 130.65
  L 394.89 144.13
  A 1.36 1.35 -27.2 0 1 394.31 145.93
  Q 388.62 148.94 382.82 151.87
  C 376.37 155.12 368.65 157.79 361.76 161.13
  A 1.95 1.95 0.0 0 0 360.90 163.83
  Q 364.01 169.45 365.74 175.68
  Q 365.89 176.22 366.43 176.37
  C 368.79 177.02 369.86 175.30 371.31 174.62
  Q 383.95 168.64 396.33 162.46
  A 0.68 0.67 -25.8 0 1 397.24 162.77
  L 403.99 176.64
  Q 404.83 178.37 403.08 179.19
  L 376.87 191.41
  A 1.97 1.96 -26.3 0 0 375.95 194.10
  L 382.75 207.19
  Q 383.00 207.67 383.52 207.76
  C 385.68 208.13 386.78 206.27 388.36 205.57
  Q 402.89 199.07 416.93 192.03
  A 0.75 0.75 0.0 0 1 417.95 192.38
  L 424.93 207.19
  A 1.19 1.19 0.0 0 1 424.35 208.78
  Q 406.42 217.05 388.74 225.54
  Q 382.25 228.65 376.07 232.22
  A 0.95 0.94 -26.7 0 1 374.73 231.78
  C 371.34 223.87 367.47 216.57 363.95 208.32
  C 360.37 199.91 354.76 189.94 351.78 183.83
  C 347.24 174.57 343.18 164.83 337.74 156.06
  A 1.82 1.81 -26.5 0 1 338.63 153.41
  Q 342.47 151.92 346.51 150.31
  Q 348.78 149.41 353.23 146.95
  Q 355.44 145.73 357.78 144.77
  Q 360.59 143.61 362.33 142.64
  Z
  M 343.31 154.78
  L 377.18 223.50
  A 1.47 1.47 0.0 0 0 379.30 224.08
  C 384.21 220.87 391.05 218.45 394.87 216.60
  Q 406.58 210.95 418.31 205.34
  Q 418.71 205.15 418.93 204.77
  Q 419.19 204.32 419.63 204.21
  Q 419.62 204.52 420.03 204.50
  A 0.48 0.48 0.0 0 0 420.43 203.81
  L 416.71 196.59
  Q 416.38 195.95 415.70 196.16
  Q 412.33 197.20 409.15 198.68
  Q 395.55 205.06 382.46 211.86
  A 0.73 0.72 -24.9 0 1 381.46 211.50
  Q 376.79 200.52 370.27 189.98
  Q 369.81 188.88 370.33 188.62
  Q 384.42 181.71 398.80 174.82
  Q 399.13 175.19 399.53 175.12
  Q 400.12 175.01 399.85 174.48
  L 395.86 166.69
  Q 395.57 166.14 395.01 166.40
  Q 386.77 170.18 378.64 174.22
  C 374.29 176.38 370.17 177.93 365.83 179.65
  Q 365.30 179.87 365.09 179.33
  Q 361.15 169.24 355.45 159.96
  L 355.19 159.22
  Q 355.02 158.70 355.51 158.46
  L 390.06 141.61
  Q 389.24 137.78 386.50 134.39
  Q 386.17 133.98 385.70 134.23
  C 383.67 135.30 381.23 135.95 379.41 136.83
  Q 361.59 145.48 343.66 153.89
  Q 343.04 154.18 343.31 154.78
  Z"
/>
<path fill="#ebfaff" d="
  M 390.06 141.61
  L 386.23 135.28
  Q 385.93 134.78 385.40 135.02
  L 343.31 154.78
  Q 343.04 154.18 343.66 153.89
  Q 361.59 145.48 379.41 136.83
  C 381.23 135.95 383.67 135.30 385.70 134.23
  Q 386.17 133.98 386.50 134.39
  Q 389.24 137.78 390.06 141.61
  Z"
/>
<path fill="#1f4e78" d="
  M 390.06 141.61
  L 355.51 158.46
  Q 355.02 158.70 355.19 159.22
  L 355.45 159.96
  L 365.15 180.43
  A 0.74 0.73 -25.0 0 0 366.12 180.78
  L 393.72 168.03
  Q 395.46 167.23 396.23 168.98
  L 398.80 174.82
  Q 384.42 181.71 370.33 188.62
  Q 369.81 188.88 370.27 189.98
  L 381.36 212.82
  Q 381.60 213.31 382.09 213.06
  Q 397.07 205.29 412.13 198.14
  Q 413.29 197.59 415.30 197.09
  Q 415.83 196.95 416.08 197.43
  L 419.63 204.21
  Q 419.19 204.32 418.93 204.77
  Q 418.71 205.15 418.31 205.34
  Q 406.58 210.95 394.87 216.60
  C 391.05 218.45 384.21 220.87 379.30 224.08
  A 1.47 1.47 0.0 0 1 377.18 223.50
  L 343.31 154.78
  L 385.40 135.02
  Q 385.93 134.78 386.23 135.28
  L 390.06 141.61
  Z"
/>
<path fill="#000201" d="
  M 315.06 173.46
  Q 314.73 170.61 312.80 168.31
  L 313.23 165.76
  Q 313.31 165.25 313.77 165.03
  L 327.62 158.31
  A 0.85 0.85 0.0 0 1 328.76 158.71
  Q 333.91 169.74 339.50 180.73
  Q 341.30 184.28 343.46 189.54
  C 346.92 197.97 352.54 206.06 353.93 214.34
  C 354.67 218.76 354.22 226.21 352.63 230.74
  C 347.09 246.49 329.10 254.10 313.76 248.46
  C 304.26 244.97 298.27 238.68 293.18 229.34
  Q 287.15 218.25 282.61 206.47
  C 279.84 199.26 276.84 193.70 273.41 187.15
  Q 271.98 184.40 274.75 183.02
  L 286.20 177.35
  A 1.70 1.70 0.0 0 1 288.51 178.18
  Q 293.08 188.37 298.10 198.63
  C 301.50 205.58 304.76 214.73 309.01 222.47
  Q 313.49 230.63 322.26 232.76
  Q 324.17 233.22 326.21 232.71
  Q 328.18 232.23 330.08 231.55
  C 337.32 228.94 338.15 218.54 335.28 212.79
  Q 325.52 193.17 320.56 181.89
  Q 318.23 176.57 315.06 173.46
  Z
  M 319.28 166.19
  Q 328.35 186.46 338.47 205.79
  C 341.61 211.81 344.79 224.67 338.44 229.51
  C 323.43 241.81 309.84 232.78 303.55 217.63
  C 298.66 205.86 293.03 194.44 287.60 182.91
  Q 286.59 180.75 284.90 181.45
  Q 284.16 181.45 282.76 182.17
  Q 283.11 182.49 282.06 183.14
  Q 279.56 183.65 279.13 184.94
  Q 280.77 190.65 282.83 194.73
  C 288.90 206.79 292.52 216.43 299.68 229.78
  Q 302.76 235.51 307.91 238.81
  C 314.50 243.02 323.91 245.83 331.67 243.40
  Q 339.60 240.91 341.63 239.15
  Q 350.65 231.33 351.75 219.87
  Q 351.38 212.60 349.08 207.49
  Q 338.90 184.82 327.43 162.88
  A 1.17 1.17 0.0 0 0 326.02 162.31
  Q 321.68 163.79 319.28 166.19
  Z"
/>
<path fill="#ebfaff" d="
  M 355.45 159.96
  Q 361.15 169.24 365.09 179.33
  Q 365.30 179.87 365.83 179.65
  C 370.17 177.93 374.29 176.38 378.64 174.22
  Q 386.77 170.18 395.01 166.40
  Q 395.57 166.14 395.86 166.69
  L 399.85 174.48
  Q 400.12 175.01 399.53 175.12
  Q 399.13 175.19 398.80 174.82
  L 396.23 168.98
  Q 395.46 167.23 393.72 168.03
  L 366.12 180.78
  A 0.74 0.73 -25.0 0 1 365.15 180.43
  L 355.45 159.96
  Z"
/>
<path fill="#ebfaff" d="
  M 351.75 219.87
  C 350.56 215.69 349.93 211.47 348.23 207.61
  Q 338.34 185.20 326.82 163.39
  A 0.68 0.68 0.0 0 0 325.93 163.09
  L 319.28 166.19
  Q 321.68 163.79 326.02 162.31
  A 1.17 1.17 0.0 0 1 327.43 162.88
  Q 338.90 184.82 349.08 207.49
  Q 351.38 212.60 351.75 219.87
  Z"
/>
<path fill="#1f4e78" d="
  M 351.75 219.87
  Q 350.65 231.33 341.63 239.15
  Q 339.60 240.91 331.67 243.40
  C 323.91 245.83 314.50 243.02 307.91 238.81
  Q 302.76 235.51 299.68 229.78
  C 292.52 216.43 288.90 206.79 282.83 194.73
  Q 280.77 190.65 279.13 184.94
  L 282.06 183.14
  Q 283.11 182.49 282.76 182.17
  L 286.38 182.23
  Q 295.16 200.63 303.67 219.39
  C 307.29 227.38 311.02 232.89 319.00 235.25
  Q 330.85 238.77 338.44 229.51
  C 344.79 224.67 341.61 211.81 338.47 205.79
  Q 328.35 186.46 319.28 166.19
  L 325.93 163.09
  A 0.68 0.68 0.0 0 1 326.82 163.39
  Q 338.34 185.20 348.23 207.61
  C 349.93 211.47 350.56 215.69 351.75 219.87
  Z"
/>
<path fill="#ebfaff" d="
  M 312.80 168.31
  Q 314.73 170.61 315.06 173.46
  Q 311.24 171.69 312.80 168.31
  Z"
/>
<path fill="#ebfaff" d="
  M 284.90 181.45
  Q 286.59 180.75 287.60 182.91
  C 293.03 194.44 298.66 205.86 303.55 217.63
  C 309.84 232.78 323.43 241.81 338.44 229.51
  Q 330.85 238.77 319.00 235.25
  C 311.02 232.89 307.29 227.38 303.67 219.39
  Q 295.16 200.63 286.38 182.23
  L 284.90 181.45
  Z"
/>
<path fill="#ebfaff" d="
  M 282.06 183.14
  L 279.13 184.94
  Q 279.56 183.65 282.06 183.14
  Z"
/>
<path fill="#000201" d="
  M 273.17 248.42
  Q 273.22 248.29 273.30 248.18
  Q 273.48 247.96 273.53 248.24
  Q 274.11 251.89 273.97 255.56
  C 273.84 259.30 274.88 262.53 274.99 266.25
  Q 275.25 275.01 276.00 283.75
  Q 276.13 285.29 275.44 286.21
  A 1.77 1.77 0.0 0 1 273.00 286.60
  C 266.30 281.93 259.36 275.65 254.31 271.45
  Q 230.63 251.74 197.95 222.80
  Q 196.40 221.43 195.84 219.97
  Q 195.56 219.24 196.27 218.91
  L 209.56 212.71
  A 2.51 2.51 0.0 0 1 212.37 213.19
  Q 218.72 219.34 225.51 224.82
  Q 235.36 232.76 238.88 235.87
  Q 245.66 241.84 252.53 247.71
  C 253.88 248.86 254.87 250.09 256.71 250.63
  A 0.39 0.38 -84.4 0 0 257.20 250.22
  L 252.12 196.34
  Q 251.93 194.32 253.74 193.42
  L 266.98 186.83
  A 1.12 1.12 0.0 0 1 268.59 187.68
  C 269.82 196.64 270.20 207.68 270.82 214.80
  Q 271.97 227.83 273.00 240.86
  C 273.18 243.18 272.63 245.78 273.13 248.41
  Q 273.15 248.48 273.17 248.42
  Z
  M 257.82 195.11
  L 262.46 260.36
  L 211.39 215.39
  A 0.77 0.77 0.0 0 0 210.54 215.28
  L 203.04 219.05
  C 203.88 220.00 204.34 221.10 205.19 221.82
  C 211.88 227.47 218.19 233.69 224.88 239.09
  Q 232.20 245.02 239.25 251.25
  C 249.85 260.62 260.44 269.01 270.80 278.18
  Q 271.19 278.52 272.10 278.27
  Q 271.63 278.72 272.47 278.89
  A 0.51 0.50 3.5 0 0 273.08 278.36
  L 266.36 191.71
  A 0.70 0.69 -9.4 0 0 265.49 191.09
  Q 261.35 192.16 257.82 195.11
  Z"
/>
<path fill="#ebfaff" d="
  M 370.27 189.98
  Q 376.79 200.52 381.46 211.50
  A 0.73 0.72 -24.9 0 0 382.46 211.86
  Q 395.55 205.06 409.15 198.68
  Q 412.33 197.20 415.70 196.16
  Q 416.38 195.95 416.71 196.59
  L 420.43 203.81
  A 0.48 0.48 0.0 0 1 420.03 204.50
  Q 419.62 204.52 419.63 204.21
  L 416.08 197.43
  Q 415.83 196.95 415.30 197.09
  Q 413.29 197.59 412.13 198.14
  Q 397.07 205.29 382.09 213.06
  Q 381.60 213.31 381.36 212.82
  L 370.27 189.98
  Z"
/>
<path fill="#ebfaff" d="
  M 272.10 278.27
  L 265.89 193.21
  A 1.13 1.12 76.0 0 0 264.32 192.26
  L 257.82 195.11
  Q 261.35 192.16 265.49 191.09
  A 0.70 0.69 -9.4 0 1 266.36 191.71
  L 273.08 278.36
  A 0.51 0.50 3.5 0 1 272.47 278.89
  Q 271.63 278.72 272.10 278.27
  Z"
/>
<path fill="#1f4e78" d="
  M 272.10 278.27
  Q 271.19 278.52 270.80 278.18
  C 260.44 269.01 249.85 260.62 239.25 251.25
  Q 232.20 245.02 224.88 239.09
  C 218.19 233.69 211.88 227.47 205.19 221.82
  C 204.34 221.10 203.88 220.00 203.04 219.05
  L 210.51 216.08
  A 0.88 0.87 52.1 0 1 211.37 216.19
  Q 214.72 218.65 219.43 223.32
  Q 228.34 232.16 262.46 260.36
  L 257.82 195.11
  L 264.32 192.26
  A 1.13 1.12 76.0 0 1 265.89 193.21
  L 272.10 278.27
  Z"
/>
<path fill="#ebfaff" d="
  M 262.46 260.36
  Q 228.34 232.16 219.43 223.32
  Q 214.72 218.65 211.37 216.19
  A 0.88 0.87 52.1 0 0 210.51 216.08
  L 203.04 219.05
  L 210.54 215.28
  A 0.77 0.77 0.0 0 1 211.39 215.39
  L 262.46 260.36
  Z"
/>
<path fill="#000201" d="
  M 208.22 260.15
  Q 210.62 261.03 212.16 262.98
  C 213.44 264.59 214.76 265.37 216.00 266.62
  A 42.48 24.70 42.9 0 0 220.39 270.72
  Q 225.04 274.68 231.58 279.72
  C 237.56 284.32 242.08 288.44 246.82 293.48
  A 0.88 0.88 0.0 0 1 246.53 294.89
  L 230.98 301.70
  A 1.58 1.58 0.0 0 1 229.27 301.42
  Q 222.46 295.17 215.24 288.76
  C 213.63 287.33 211.90 288.37 209.83 289.45
  Q 197.19 296.06 184.11 301.52
  A 1.80 1.79 -11.8 0 0 183.01 303.19
  Q 183.07 311.17 182.81 319.50
  C 182.73 322.07 181.49 323.21 179.25 324.01
  Q 172.24 326.49 165.75 330.47
  A 0.48 0.48 0.0 0 1 165.02 330.05
  Q 165.84 303.10 165.93 276.00
  C 165.99 261.00 166.65 246.22 167.02 231.32
  C 167.06 229.86 166.71 228.41 167.61 226.99
  Q 167.88 226.55 168.40 226.52
  C 171.80 226.26 177.46 232.34 180.61 235.31
  Q 183.56 238.10 189.78 243.26
  Q 194.49 247.16 198.67 251.63
  Q 200.12 253.18 203.10 255.51
  Q 205.50 257.39 207.55 259.69
  Q 207.82 260.01 208.22 260.15
  Z
  M 172.32 232.09
  Q 172.39 233.94 172.18 235.24
  Q 171.78 237.73 171.78 238.31
  Q 171.86 247.95 171.26 264.76
  Q 170.71 280.25 170.66 321.53
  Q 170.66 322.12 171.18 321.85
  L 179.34 317.61
  Q 180.32 308.15 179.86 298.03
  C 180.10 297.09 180.32 296.58 181.27 296.19
  C 192.05 291.76 202.22 286.31 212.88 281.69
  A 3.75 3.74 -35.5 0 1 216.87 282.35
  Q 223.57 288.39 230.48 294.54
  C 232.43 296.27 233.67 295.02 235.46 294.47
  Q 237.95 293.71 240.77 291.88
  Q 240.38 289.97 237.79 287.95
  Q 223.81 277.01 209.75 264.07
  C 206.32 260.91 200.53 256.59 195.84 251.90
  Q 190.66 246.72 172.32 232.09
  Z"
/>
<path fill="#ebfaff" d="
  M 240.77 291.88
  Q 233.98 285.44 227.60 280.62
  C 220.55 275.28 213.94 268.40 206.45 262.34
  Q 199.43 256.65 195.51 253.12
  Q 184.26 242.97 172.32 232.09
  Q 190.66 246.72 195.84 251.90
  C 200.53 256.59 206.32 260.91 209.75 264.07
  Q 223.81 277.01 237.79 287.95
  Q 240.38 289.97 240.77 291.88
  Z"
/>
<path fill="#1f4e78" d="
  M 172.32 232.09
  Q 184.26 242.97 195.51 253.12
  Q 199.43 256.65 206.45 262.34
  C 213.94 268.40 220.55 275.28 227.60 280.62
  Q 233.98 285.44 240.77 291.88
  Q 237.95 293.71 235.46 294.47
  C 233.67 295.02 232.43 296.27 230.48 294.54
  Q 223.57 288.39 216.87 282.35
  A 3.75 3.74 -35.5 0 0 212.88 281.69
  C 202.22 286.31 192.05 291.76 181.27 296.19
  C 180.32 296.58 180.10 297.09 179.86 298.03
  Q 179.34 298.72 179.32 300.25
  Q 179.14 311.86 179.34 317.61
  L 171.18 321.85
  Q 170.66 322.12 170.66 321.53
  Q 170.71 280.25 171.26 264.76
  Q 171.86 247.95 171.78 238.31
  Q 171.78 237.73 172.18 235.24
  Q 172.39 233.94 172.32 232.09
  Z
  M 179.97 251.76
  Q 179.78 251.88 179.62 251.89
  Q 179.50 251.89 179.50 252.02
  L 179.36 286.78
  A 0.79 0.79 0.0 0 0 180.42 287.53
  C 185.22 285.85 189.56 283.28 194.33 281.41
  Q 201.32 278.68 207.51 274.26
  L 180.65 251.29
  Q 180.25 250.96 180.08 251.45
  L 179.97 251.76
  Z"
/>
<path fill="#000201" d="
  M 140.16 244.27
  A 0.26 0.26 0.0 0 1 140.51 244.39
  L 147.51 259.71
  A 1.50 1.49 -24.1 0 1 146.75 261.70
  L 124.86 271.16
  A 1.25 1.24 -24.2 0 0 124.22 272.83
  L 152.51 334.29
  A 2.02 2.02 0.0 0 1 151.53 336.97
  L 138.06 343.21
  A 1.21 1.21 0.0 0 1 136.40 342.49
  Q 135.58 339.92 134.50 337.48
  Q 126.20 318.64 117.40 300.02
  C 114.88 294.68 112.65 288.63 110.09 282.96
  Q 109.29 281.18 108.35 280.22
  A 1.00 0.99 58.3 0 0 107.32 279.97
  Q 95.73 283.86 85.40 290.42
  A 1.40 1.39 60.1 0 1 83.42 289.88
  L 76.42 276.32
  A 2.16 2.15 -25.0 0 1 77.51 273.34
  Q 86.46 269.60 95.99 264.99
  Q 101.13 262.50 106.50 260.54
  Q 109.27 259.53 111.85 258.17
  Q 115.56 256.22 117.06 255.56
  Q 127.42 250.97 140.16 244.27
  Z
  M 82.28 274.97
  Q 83.14 279.41 85.04 281.86
  A 2.36 2.35 -32.1 0 0 87.94 282.52
  L 110.29 271.55
  A 0.43 0.43 0.0 0 1 110.87 271.76
  Q 120.61 294.25 131.27 316.44
  C 134.13 322.40 136.50 328.99 139.23 335.33
  A 1.66 1.65 63.7 0 0 141.55 336.12
  L 148.24 332.39
  Q 145.67 325.90 142.76 319.72
  C 134.79 302.75 127.58 285.65 118.89 269.00
  L 118.86 268.59
  Q 118.82 268.05 119.31 267.82
  L 142.32 256.84
  Q 141.21 252.35 138.84 248.69
  Q 138.56 248.26 138.10 248.48
  Q 117.89 258.03 97.53 266.97
  Q 89.62 270.44 82.28 274.97
  Z"
/>
<path fill="#ebfaff" d="
  M 142.32 256.84
  L 138.74 249.80
  A 0.77 0.76 -25.5 0 0 137.73 249.45
  L 82.28 274.97
  Q 89.62 270.44 97.53 266.97
  Q 117.89 258.03 138.10 248.48
  Q 138.56 248.26 138.84 248.69
  Q 141.21 252.35 142.32 256.84
  Z"
/>
<path fill="#1f4e78" d="
  M 142.32 256.84
  L 119.31 267.82
  Q 118.82 268.05 118.86 268.59
  L 118.89 269.00
  Q 118.65 269.06 118.58 269.42
  Q 118.53 269.64 118.66 269.90
  C 125.43 283.47 131.49 296.41 137.97 310.99
  Q 140.51 316.69 144.65 325.56
  Q 147.10 330.82 148.24 332.39
  L 141.55 336.12
  A 1.66 1.65 63.7 0 1 139.23 335.33
  C 136.50 328.99 134.13 322.40 131.27 316.44
  Q 120.61 294.25 110.87 271.76
  A 0.43 0.43 0.0 0 0 110.29 271.55
  L 87.94 282.52
  A 2.36 2.35 -32.1 0 1 85.04 281.86
  Q 83.14 279.41 82.28 274.97
  L 137.73 249.45
  A 0.77 0.76 -25.5 0 1 138.74 249.80
  L 142.32 256.84
  Z"
/>
<path fill="#000201" d="
  M 207.51 274.26
  L 180.72 286.53
  A 0.48 0.48 0.0 0 1 180.04 286.09
  L 179.97 251.76
  L 180.08 251.45
  Q 180.25 250.96 180.65 251.29
  L 207.51 274.26
  Z
  M 186.10 281.17
  Q 187.05 281.01 187.89 280.63
  Q 192.86 278.42 197.34 276.53
  A 1.83 1.83 0.0 0 0 197.84 273.48
  L 184.70 261.81
  A 0.95 0.95 0.0 0 0 183.12 262.51
  L 182.91 282.50
  Q 182.90 283.11 183.63 282.86
  Q 184.61 282.53 185.33 281.63
  Q 185.63 281.26 186.10 281.17
  Z"
/>
<path fill="#ebfaff" d="
  M 179.97 251.76
  L 180.04 286.09
  A 0.48 0.48 0.0 0 0 180.72 286.53
  L 207.51 274.26
  Q 201.32 278.68 194.33 281.41
  C 189.56 283.28 185.22 285.85 180.42 287.53
  A 0.79 0.79 0.0 0 1 179.36 286.78
  L 179.50 252.02
  Q 179.50 251.89 179.62 251.89
  Q 179.78 251.88 179.97 251.76
  Z"
/>
<path fill="#ebfaff" d="
  M 118.89 269.00
  C 127.58 285.65 134.79 302.75 142.76 319.72
  Q 145.67 325.90 148.24 332.39
  Q 147.10 330.82 144.65 325.56
  Q 140.51 316.69 137.97 310.99
  C 131.49 296.41 125.43 283.47 118.66 269.90
  Q 118.53 269.64 118.58 269.42
  Q 118.65 269.06 118.89 269.00
  Z"
/>
<path fill="#ebfaff" d="
  M 179.86 298.03
  Q 180.32 308.15 179.34 317.61
  Q 179.14 311.86 179.32 300.25
  Q 179.34 298.72 179.86 298.03
  Z"
/>
</svg>
