<svg width="407" height="157" viewBox="0 0 407 157" fill="none" xmlns="http://www.w3.org/2000/svg">
<path d="M6.77994 43.15C6.77994 43.15 56.1299 37.58 61.7099 34.39C67.2899 31.2 72.8499 26.43 81.2099 24.84C89.5699 23.25 145.69 13.7 145.69 13.7C145.69 13.7 152.85 11.71 163.2 19.27C173.55 26.83 196.24 51.11 202.6 50.32C208.97 49.52 212.15 40.77 210.16 36.79C208.17 32.81 169.5 4.02999 162.81 2.14999C153.28 -0.530004 140.92 -0.240004 125.79 2.14999C110.67 4.54 9.56994 25.49 9.56994 25.49C9.56994 25.49 -3.56006 31.61 6.77994 43.15Z" fill="#F5B9FF"/>
<g style="mix-blend-mode:multiply">
<path d="M206.19 38.77C206.19 38.77 205.88 44.92 202.21 44.34C197.24 43.56 166.39 10.51 156.04 12.1C156.04 12.1 164.57 14.81 174.5 23.74C181.01 29.6 208.92 61.59 206.19 38.77Z" fill="#706F6F"/>
</g>
<path d="M272.74 67.6601L363.28 37.8799C363.28 37.8799 385.41 32.2499 388.63 33.8599C391.85 35.4699 406.34 64.4401 406.34 67.6601C406.34 70.8801 403.92 81.6699 400.71 82.5499C398.38 83.1899 395.38 82.66 393.87 78.3399C392.46 74.3199 387.03 46.6099 381.4 46.8699C375.77 47.1299 330.7 62.82 330.7 62.82C330.7 62.82 317.42 69.2599 311.79 74.0899C306.16 78.9199 279.6 85.36 279.6 85.36C279.6 85.36 269.94 77.71 272.76 67.65L272.74 67.6601Z" fill="#F5B9FF"/>
<g style="mix-blend-mode:multiply">
<path d="M279.29 68.1C279.29 68.1 381.56 32.91 387.14 36.11C387.14 36.11 368.94 38.6 345.38 47.99C321.82 57.38 279.29 70.02 279.29 70.02V68.1Z" fill="#706F6F"/>
</g>
<g style="mix-blend-mode:multiply">
<path d="M383.31 46.07C383.31 46.07 386.57 46.07 388.29 49.52C390.01 52.97 398.06 74.23 398.06 74.23C398.06 74.23 398.83 79.21 403.23 71.55C403.23 71.55 400.16 81.11 397.87 78.34C395.58 75.57 388.1 52.01 388.1 52.01C388.1 52.01 385.23 45.27 383.31 46.07Z" fill="#706F6F"/>
</g>
<path d="M283.26 68.82C283.02 65.41 273.69 63.6 270.55 62.42C267.41 61.24 254.85 64.38 254.85 64.38C242.68 61.24 200.3 55.35 175.97 55.35C151.64 55.35 143.4 66.73 140.65 66.34C137.9 65.95 123.38 65.56 117.1 64.38C110.82 63.2 112 50.25 77.85 37.9C43.71 25.56 9.57005 25.49 9.57005 25.49C-3.77995 30.15 2.81005 43.98 2.81005 43.98L4.86005 50.33C9.18005 52.36 8.00005 60.85 9.57005 73.41C11.14 85.97 17.03 102.06 23.7 111.87C30.37 121.68 55.49 132.67 68.05 133.06C80.61 133.45 91.6 131.1 99.84 117.75C108.08 104.41 116.72 80.86 116.72 80.86L126.92 82.43C126.92 82.43 129.83 82.74 132.27 85.52C134.71 88.3 136.7 93.55 139.87 102.83C147.43 124.93 164.99 142.08 164.99 142.08C164.99 142.08 170.59 149.51 198.43 154.74C221.51 159.08 241.13 152.28 241.13 152.28C258.85 145.11 262.76 107.32 262.76 107.32C262.76 107.32 264.59 94.02 270.57 90.67C277.94 86.53 278.84 86.23 283.28 85.35C286.89 84.64 283.52 72.22 283.28 68.81L283.26 68.82ZM88.45 119.33C79.03 124.43 56.27 126.39 42.14 115.41C28.01 104.42 21.34 85.19 19.38 62.43C17.42 39.67 26.48 37.2 26.48 37.2C26.48 37.2 41.36 36.53 60.59 41.23C79.82 45.94 101.01 59.28 101.41 67.92C101.8 76.55 97.88 114.23 88.46 119.33H88.45ZM242.68 143.66C233.65 147.98 221.21 148.37 210.75 147.58C200.29 146.8 173.21 146.01 163.4 116.18C163.4 116.18 160.65 102.05 158.3 98.91C155.95 95.77 148.88 84.43 148.88 80.48C148.88 72.25 156.03 67.51 156.03 67.51C156.03 67.51 164.19 62.41 174.78 62.41C185.38 62.41 239.53 65.16 246.99 75.36C254.45 85.56 254.05 97.34 255.23 106.76C256.41 116.18 251.7 139.33 242.67 143.65L242.68 143.66Z" fill="#773083"/>
<g style="mix-blend-mode:multiply">
<path d="M29.1202 37.2299C29.1202 37.2299 17.8102 34.0799 15.4502 46.8799C13.1002 59.6799 13.9202 77.4899 20.9402 96.9599C27.9602 116.43 47.6302 123.42 47.6302 123.42C47.6302 123.42 63.5802 129.38 78.2402 126.78C85.7002 125.46 89.3702 121.85 91.5402 116.27C91.5402 116.27 77.1502 132.71 43.9902 116.72C37.9902 113.83 33.3902 107.23 29.7502 100.8C22.7102 88.3799 19.6102 73.1299 19.3702 62.4199C18.7402 34.0599 29.1102 37.2199 29.1102 37.2199L29.1202 37.2299Z" fill="#706F6F"/>
</g>
<g style="mix-blend-mode:multiply">
<path d="M156.04 65.1699C156.04 65.1699 144.18 69.0599 145.36 85.3599C146.54 101.66 157.53 121.53 160.67 127.49C163.81 133.45 176.37 144.7 186.96 147.91C197.55 151.12 227.47 151.61 239.2 145.08C239.2 145.08 206.38 152.8 181.21 139.83C181.21 139.83 167.86 132.63 164.07 118.05C164.07 118.05 161.06 104.75 159.03 100.16C155.77 92.8199 151.65 91.0499 148.9 80.4899C146.55 71.4599 156.05 65.1599 156.05 65.1599L156.04 65.1699Z" fill="#706F6F"/>
</g>
<g style="mix-blend-mode:multiply">
<path d="M151.64 97.75C151.64 97.75 152.42 104.81 159.88 114.63L151.64 97.75Z" fill="#706F6F"/>
</g>
<g style="mix-blend-mode:multiply">
<path d="M136.13 72.27C136.13 72.27 129.28 81.31 132.22 82.37C135.16 83.43 136.13 72.27 136.13 72.27Z" fill="#706F6F"/>
</g>
<g style="mix-blend-mode:multiply">
<path d="M108.74 68.9399C108.74 68.9399 111.28 81.4899 112.65 80.4999C114.02 79.5099 108.74 68.9399 108.74 68.9399Z" fill="#706F6F"/>
</g>
<g style="mix-blend-mode:multiply">
<path d="M94.4602 120.4C94.4602 120.4 105.09 106.51 112.88 83.22C112.88 83.22 99.0802 112.46 94.4602 120.4Z" fill="#706F6F"/>
</g>
<g style="mix-blend-mode:multiply">
<path d="M112.88 68.1599C112.88 68.1599 131.24 71.6799 136.13 70.3099L140.83 68.1599C140.83 68.1599 134.18 69.8499 130.26 69.3899C126.34 68.9299 112.88 68.1599 112.88 68.1599Z" fill="#706F6F"/>
</g>
<g style="mix-blend-mode:multiply">
<path d="M270.16 75.98C270.16 75.98 271.35 72.65 272.22 75.98C273.09 79.31 272.22 86.74 272.22 86.74C272.22 86.74 270.55 88.5 270.16 86.74C269.77 84.98 270.16 75.98 270.16 75.98Z" fill="#706F6F"/>
</g>
<g style="mix-blend-mode:multiply">
<path d="M277.79 70.02C277.79 70.02 272.55 72.46 269.99 72.26C267.43 72.06 249.75 67.5 210.15 60.73C210.15 60.73 241.13 64.31 269.99 70.62C273.22 71.33 277.79 70.02 277.79 70.02Z" fill="#706F6F"/>
</g>
<g style="mix-blend-mode:multiply">
<path d="M108.74 65.17C108.74 65.17 103.46 51.33 88.2001 44.87C80.3201 41.54 72.2902 38.78 65.5502 36.75C59.2302 34.85 54.0602 33.6 51.2202 33.13C45.3502 32.15 24.6102 28.43 22.4602 28.63C20.3102 28.83 16.0002 29.31 11.8902 29.46C7.78016 29.61 6.41016 29.46 6.41016 29.46C6.41016 29.46 10.5802 31.47 17.3702 30.39C22.6902 29.55 34.7802 31.37 34.7802 31.37C34.7802 31.37 89.7602 36.36 108.74 65.17Z" fill="#706F6F"/>
</g>
<path d="M235.75 77.35C235.75 77.35 245.63 78.47 246.49 88.14C246.49 88.14 241.76 78.59 235.75 77.35Z" fill="white"/>
</svg>
